<?xml version="1.0" encoding="UTF-8"?>
<svg xmlns="http://www.w3.org/2000/svg" xmlns:xlink="http://www.w3.org/1999/xlink" width="400pt" height="300pt" viewBox="0 0 400 300" version="1.1">
<defs>
<linearGradient id="linear0" gradientUnits="userSpaceOnUse" x1="200" y1="0" x2="200" y2="300" >
<stop offset="0" style="stop-color:rgb(100%,100%,100%);stop-opacity:1;"/>
<stop offset="1" style="stop-color:rgb(90%,90%,90%);stop-opacity:1;"/>
</linearGradient>
<linearGradient id="linear1" gradientUnits="userSpaceOnUse" x1="17.8" y1="45.037037" x2="17.8" y2="64.296296" >
<stop offset="0" style="stop-color:rgb(70%,49%,0%);stop-opacity:1;"/>
<stop offset="1" style="stop-color:rgb(100%,70%,0%);stop-opacity:1;"/>
</linearGradient>
<linearGradient id="linear2" gradientUnits="userSpaceOnUse" x1="65.266667" y1="64.296296" x2="65.266667" y2="83.555556" >
<stop offset="0" style="stop-color:rgb(70%,14%,0%);stop-opacity:1;"/>
<stop offset="1" style="stop-color:rgb(100%,20%,0%);stop-opacity:1;"/>
</linearGradient>
<linearGradient id="linear3" gradientUnits="userSpaceOnUse" x1="47.466667" y1="89.333333" x2="47.466667" y2="108.592593" >
<stop offset="0" style="stop-color:rgb(70%,70%,0%);stop-opacity:1;"/>
<stop offset="1" style="stop-color:rgb(100%,100%,0%);stop-opacity:1;"/>
</linearGradient>
<linearGradient id="linear4" gradientUnits="userSpaceOnUse" x1="53.4" y1="108.592593" x2="53.4" y2="127.851852" >
<stop offset="0" style="stop-color:rgb(70%,49%,0%);stop-opacity:1;"/>
<stop offset="1" style="stop-color:rgb(100%,70%,0%);stop-opacity:1;"/>
</linearGradient>
<linearGradient id="linear5" gradientUnits="userSpaceOnUse" x1="124.6" y1="127.851852" x2="124.6" y2="147.111111" >
<stop offset="0" style="stop-color:rgb(70%,14%,0%);stop-opacity:1;"/>
<stop offset="1" style="stop-color:rgb(100%,20%,0%);stop-opacity:1;"/>
</linearGradient>
<linearGradient id="linear6" gradientUnits="userSpaceOnUse" x1="77.133333" y1="152.888889" x2="77.133333" y2="172.148148" >
<stop offset="0" style="stop-color:rgb(70%,70%,0%);stop-opacity:1;"/>
<stop offset="1" style="stop-color:rgb(100%,100%,0%);stop-opacity:1;"/>
</linearGradient>
<linearGradient id="linear7" gradientUnits="userSpaceOnUse" x1="59.333333" y1="172.148148" x2="59.333333" y2="191.407407" >
<stop offset="0" style="stop-color:rgb(70%,49%,0%);stop-opacity:1;"/>
<stop offset="1" style="stop-color:rgb(100%,70%,0%);stop-opacity:1;"/>
</linearGradient>
<linearGradient id="linear8" gradientUnits="userSpaceOnUse" x1="53.4" y1="191.407407" x2="53.4" y2="210.666667" >
<stop offset="0" style="stop-color:rgb(70%,14%,0%);stop-opacity:1;"/>
<stop offset="1" style="stop-color:rgb(100%,20%,0%);stop-opacity:1;"/>
</linearGradient>
<linearGradient id="linear9" gradientUnits="userSpaceOnUse" x1="11.866667" y1="216.444444" x2="11.866667" y2="235.703704" >
<stop offset="0" style="stop-color:rgb(70%,70%,0%);stop-opacity:1;"/>
<stop offset="1" style="stop-color:rgb(100%,100%,0%);stop-opacity:1;"/>
</linearGradient>
<linearGradient id="linear10" gradientUnits="userSpaceOnUse" x1="178" y1="235.703704" x2="178" y2="254.962963" >
<stop offset="0" style="stop-color:rgb(70%,49%,0%);stop-opacity:1;"/>
<stop offset="1" style="stop-color:rgb(100%,70%,0%);stop-opacity:1;"/>
</linearGradient>
<linearGradient id="linear11" gradientUnits="userSpaceOnUse" x1="47.466667" y1="254.962963" x2="47.466667" y2="274.222222" >
<stop offset="0" style="stop-color:rgb(70%,14%,0%);stop-opacity:1;"/>
<stop offset="1" style="stop-color:rgb(100%,20%,0%);stop-opacity:1;"/>
</linearGradient>
</defs>
<g id="surface136">
<rect x="0" y="0" width="400" height="300" style="fill:url(#linear0);stroke:none;"/>
<path style="fill:none;stroke-width:0.5;stroke-linecap:butt;stroke-linejoin:miter;stroke:rgb(50%,50%,50%);stroke-opacity:1;stroke-miterlimit:10;" d="M 20 20 L 380 20 L 380 280 L 20 280 Z "/>
<path style="fill:none;stroke-width:0.5;stroke-linecap:butt;stroke-linejoin:miter;stroke:rgb(80%,80%,80%);stroke-opacity:1;stroke-miterlimit:10;" d="M 20 20 L 20 280 "/>
<path style="fill:none;stroke-width:0.5;stroke-linecap:butt;stroke-linejoin:miter;stroke:rgb(80%,80%,80%);stroke-opacity:1;stroke-miterlimit:10;" d="M 55.601562 20 L 55.601562 280 "/>
<path style="fill:none;stroke-width:0.5;stroke-linecap:butt;stroke-linejoin:miter;stroke:rgb(80%,80%,80%);stroke-opacity:1;stroke-miterlimit:10;" d="M 91.199219 20 L 91.199219 280 "/>
<path style="fill:none;stroke-width:0.5;stroke-linecap:butt;stroke-linejoin:miter;stroke:rgb(80%,80%,80%);stroke-opacity:1;stroke-miterlimit:10;" d="M 126.800781 20 L 126.800781 280 "/>
<path style="fill:none;stroke-width:0.5;stroke-linecap:butt;stroke-linejoin:miter;stroke:rgb(80%,80%,80%);stroke-opacity:1;stroke-miterlimit:10;" d="M 162.398438 20 L 162.398438 280 "/>
<path style="fill:none;stroke-width:0.5;stroke-linecap:butt;stroke-linejoin:miter;stroke:rgb(80%,80%,80%);stroke-opacity:1;stroke-miterlimit:10;" d="M 198 20 L 198 280 "/>
<path style="fill:none;stroke-width:0.5;stroke-linecap:butt;stroke-linejoin:miter;stroke:rgb(80%,80%,80%);stroke-opacity:1;stroke-miterlimit:10;" d="M 233.601562 20 L 233.601562 280 "/>
<path style="fill:none;stroke-width:0.5;stroke-linecap:butt;stroke-linejoin:miter;stroke:rgb(80%,80%,80%);stroke-opacity:1;stroke-miterlimit:10;" d="M 269.199219 20 L 269.199219 280 "/>
<path style="fill:none;stroke-width:0.5;stroke-linecap:butt;stroke-linejoin:miter;stroke:rgb(80%,80%,80%);stroke-opacity:1;stroke-miterlimit:10;" d="M 304.800781 20 L 304.800781 280 "/>
<path style="fill:none;stroke-width:0.5;stroke-linecap:butt;stroke-linejoin:miter;stroke:rgb(80%,80%,80%);stroke-opacity:1;stroke-miterlimit:10;" d="M 340.398438 20 L 340.398438 280 "/>
<path style="fill:none;stroke-width:0.5;stroke-linecap:butt;stroke-linejoin:miter;stroke:rgb(80%,80%,80%);stroke-opacity:1;stroke-miterlimit:10;" d="M 376 20 L 376 280 "/>
<path style=" stroke:none;fill-rule:nonzero;fill:url(#linear1);" d="M 20 45.035156 L 55.601562 45.035156 L 55.601562 64.292969 L 20 64.292969 Z "/>
<path style=" stroke:none;fill-rule:nonzero;fill:url(#linear2);" d="M 20 64.296875 L 150.535156 64.296875 L 150.535156 83.554688 L 20 83.554688 Z "/>
<path style=" stroke:none;fill-rule:nonzero;fill:url(#linear3);" d="M 20 89.332031 L 114.933594 89.332031 L 114.933594 108.589844 L 20 108.589844 Z "/>
<path style=" stroke:none;fill-rule:nonzero;fill:url(#linear4);" d="M 20 108.59375 L 126.800781 108.59375 L 126.800781 127.851562 L 20 127.851562 Z "/>
<path style=" stroke:none;fill-rule:nonzero;fill:url(#linear5);" d="M 20 127.851562 L 269.199219 127.851562 L 269.199219 147.109375 L 20 147.109375 Z "/>
<path style=" stroke:none;fill-rule:nonzero;fill:url(#linear6);" d="M 20 152.890625 L 174.265625 152.890625 L 174.265625 172.148438 L 20 172.148438 Z "/>
<path style=" stroke:none;fill-rule:nonzero;fill:url(#linear7);" d="M 20 172.148438 L 138.667969 172.148438 L 138.667969 191.40625 L 20 191.40625 Z "/>
<path style=" stroke:none;fill-rule:nonzero;fill:url(#linear8);" d="M 20 191.40625 L 126.800781 191.40625 L 126.800781 210.664062 L 20 210.664062 Z "/>
<path style=" stroke:none;fill-rule:nonzero;fill:url(#linear9);" d="M 20 216.445312 L 43.734375 216.445312 L 43.734375 235.703125 L 20 235.703125 Z "/>
<path style=" stroke:none;fill-rule:nonzero;fill:url(#linear10);" d="M 20 235.703125 L 376 235.703125 L 376 254.960938 L 20 254.960938 Z "/>
<path style=" stroke:none;fill-rule:nonzero;fill:url(#linear11);" d="M 20 254.964844 L 114.933594 254.964844 L 114.933594 274.222656 L 20 274.222656 Z "/>
</g>
</svg>
