<?xml version="1.0" encoding="UTF-8"?>
<svg xmlns="http://www.w3.org/2000/svg" xmlns:xlink="http://www.w3.org/1999/xlink" width="400pt" height="300pt" viewBox="0 0 400 300" version="1.1">
<defs>
<linearGradient id="linear0" gradientUnits="userSpaceOnUse" x1="200" y1="0" x2="200" y2="300" >
<stop offset="0" style="stop-color:rgb(100%,100%,100%);stop-opacity:1;"/>
<stop offset="1" style="stop-color:rgb(90%,90%,90%);stop-opacity:1;"/>
</linearGradient>
</defs>
<g id="surface81">
<rect x="0" y="0" width="400" height="300" style="fill:url(#linear0);stroke:none;"/>
<path style="fill:none;stroke-width:0.5;stroke-linecap:butt;stroke-linejoin:miter;stroke:rgb(50%,50%,50%);stroke-opacity:1;stroke-miterlimit:10;" d="M 20 20 L 380 20 L 380 280 L 20 280 Z "/>
<path style="fill:none;stroke-width:0.5;stroke-linecap:butt;stroke-linejoin:miter;stroke:rgb(80%,80%,80%);stroke-opacity:1;stroke-miterlimit:10;" d="M 20 24 L 380 24 "/>
<path style="fill:none;stroke-width:0.5;stroke-linecap:butt;stroke-linejoin:miter;stroke:rgb(80%,80%,80%);stroke-opacity:1;stroke-miterlimit:10;" d="M 20 49.601562 L 380 49.601562 "/>
<path style="fill:none;stroke-width:0.5;stroke-linecap:butt;stroke-linejoin:miter;stroke:rgb(80%,80%,80%);stroke-opacity:1;stroke-miterlimit:10;" d="M 20 75.199219 L 380 75.199219 "/>
<path style="fill:none;stroke-width:0.5;stroke-linecap:butt;stroke-linejoin:miter;stroke:rgb(80%,80%,80%);stroke-opacity:1;stroke-miterlimit:10;" d="M 20 100.800781 L 380 100.800781 "/>
<path style="fill:none;stroke-width:0.5;stroke-linecap:butt;stroke-linejoin:miter;stroke:rgb(80%,80%,80%);stroke-opacity:1;stroke-miterlimit:10;" d="M 20 126.398438 L 380 126.398438 "/>
<path style="fill:none;stroke-width:0.5;stroke-linecap:butt;stroke-linejoin:miter;stroke:rgb(80%,80%,80%);stroke-opacity:1;stroke-miterlimit:10;" d="M 20 152 L 380 152 "/>
<path style="fill:none;stroke-width:0.5;stroke-linecap:butt;stroke-linejoin:miter;stroke:rgb(80%,80%,80%);stroke-opacity:1;stroke-miterlimit:10;" d="M 20 177.601562 L 380 177.601562 "/>
<path style="fill:none;stroke-width:0.5;stroke-linecap:butt;stroke-linejoin:miter;stroke:rgb(80%,80%,80%);stroke-opacity:1;stroke-miterlimit:10;" d="M 20 203.199219 L 380 203.199219 "/>
<path style="fill:none;stroke-width:0.5;stroke-linecap:butt;stroke-linejoin:miter;stroke:rgb(80%,80%,80%);stroke-opacity:1;stroke-miterlimit:10;" d="M 20 228.800781 L 380 228.800781 "/>
<path style="fill:none;stroke-width:0.5;stroke-linecap:butt;stroke-linejoin:miter;stroke:rgb(80%,80%,80%);stroke-opacity:1;stroke-miterlimit:10;" d="M 20 254.398438 L 380 254.398438 "/>
<path style="fill:none;stroke-width:0.5;stroke-linecap:butt;stroke-linejoin:miter;stroke:rgb(80%,80%,80%);stroke-opacity:1;stroke-miterlimit:10;" d="M 20 280 L 380 280 "/>
<path style=" stroke:none;fill-rule:nonzero;fill:rgb(100%,70%,0%);fill-opacity:1;" d="M 54.667969 254.398438 L 81.335938 254.398438 L 81.335938 280 L 54.667969 280 Z "/>
<path style=" stroke:none;fill-rule:nonzero;fill:rgb(100%,20%,0%);fill-opacity:1;" d="M 81.332031 186.132812 L 108 186.132812 L 108 280 L 81.332031 280 Z "/>
<path style=" stroke:none;fill-rule:nonzero;fill:rgb(100%,100%,0%);fill-opacity:1;" d="M 116 211.734375 L 142.667969 211.734375 L 142.667969 280 L 116 280 Z "/>
<path style=" stroke:none;fill-rule:nonzero;fill:rgb(100%,70%,0%);fill-opacity:1;" d="M 142.667969 203.199219 L 169.335938 203.199219 L 169.335938 280 L 142.667969 280 Z "/>
<path style=" stroke:none;fill-rule:nonzero;fill:rgb(100%,20%,0%);fill-opacity:1;" d="M 169.332031 100.800781 L 196 100.800781 L 196 280 L 169.332031 280 Z "/>
<path style=" stroke:none;fill-rule:nonzero;fill:rgb(100%,100%,0%);fill-opacity:1;" d="M 204 169.066406 L 230.667969 169.066406 L 230.667969 280 L 204 280 Z "/>
<path style=" stroke:none;fill-rule:nonzero;fill:rgb(100%,70%,0%);fill-opacity:1;" d="M 230.667969 194.667969 L 257.335938 194.667969 L 257.335938 280 L 230.667969 280 Z "/>
<path style=" stroke:none;fill-rule:nonzero;fill:rgb(100%,20%,0%);fill-opacity:1;" d="M 257.332031 203.199219 L 284 203.199219 L 284 280 L 257.332031 280 Z "/>
<path style=" stroke:none;fill-rule:nonzero;fill:rgb(100%,100%,0%);fill-opacity:1;" d="M 292 262.933594 L 318.667969 262.933594 L 318.667969 280 L 292 280 Z "/>
<path style=" stroke:none;fill-rule:nonzero;fill:rgb(100%,70%,0%);fill-opacity:1;" d="M 318.667969 24 L 345.335938 24 L 345.335938 280 L 318.667969 280 Z "/>
<path style=" stroke:none;fill-rule:nonzero;fill:rgb(100%,20%,0%);fill-opacity:1;" d="M 345.332031 211.734375 L 372 211.734375 L 372 280 L 345.332031 280 Z "/>
</g>
</svg>
